<?xml version="1.0" encoding="UTF-8" standalone="no"?>
<!DOCTYPE svg PUBLIC "-//W3C//DTD SVG 1.1//EN" "http://www.w3.org/Graphics/SVG/1.1/DTD/svg11.dtd">
<svg width="100%" height="100%" viewBox="0 0 22 22" version="1.1" xmlns="http://www.w3.org/2000/svg" xmlns:xlink="http://www.w3.org/1999/xlink" xml:space="preserve" xmlns:serif="http://www.serif.com/" style="fill-rule:evenodd;clip-rule:evenodd;stroke-linejoin:round;stroke-miterlimit:2;">
    <g transform="matrix(1,0,0,1,-1225.575924,-494.533586)">
        <g transform="matrix(0.039888,0,0,0.039888,1225.974114,494.905489)">
            <path d="M367.445,161.5C360.348,168.484 360.38,168.494 312.937,215.937C309.617,219.257 271.628,257.246 271.476,257.481C270.16,259.511 271.257,259.994 297.632,286.368C512.608,501.345 512.744,501.335 513.549,503.48C516.532,511.419 506.946,518.803 499.482,511.519C497.899,509.975 497.915,509.975 263.47,275.53C259.875,271.935 259.124,269.842 255.483,273.483C208.471,320.489 161.458,367.494 114.445,414.5C107.348,421.484 107.38,421.494 59.937,468.937C14.567,514.306 13.844,516.797 7.644,514.151C3.195,512.253 0.27,506.373 4.888,500.819C6.187,499.257 245.437,260.466 245.78,259.633C246.515,257.849 245.493,257.627 129.933,142.067C120.014,132.147 6.141,18.274 5.945,18.068C-3.001,8.684 8.899,-1.789 17.155,5.884C36.96,24.291 36.217,25.032 256.158,244.849C257.261,245.951 258.224,247.38 260.329,245.318C284.676,221.467 498.841,5.658 502.67,3.849C508.612,1.041 521.363,7.732 509.483,19.483C508.667,20.291 451.195,77.74 367.445,161.5Z" style="fill:white;fill-opacity:1;stroke:white;stroke-width:25.07px;"/>
        </g>
    </g>
</svg>
